# xmcd CD database file
#
# Track frame offsets:
#	150
#	10860
#	22548
#	33036
#	43359
#	53122
#	63385
#	74030
#	86120
#	96892
#	109154
#	120409
#
# Disc length: 1739 seconds
#
# Revision: 2
# Processed by: cddbd v1.5.2PL0 Copyright (c) Steve Scherf et al.
# Submitted via: jetAudio 7
#
DISCID=9806c90c
DTITLE=Chet Atkins - Country Gentleman [ARM]
DYEAR=2005
DGENRE=Country
TTITLE0=Arkansas Traveler
TTITLE1=Barber Shop Rag
TTITLE2=Bill Bailey
TTITLE3=Country Gentleman
TTITLE4=Down Home
TTITLE5=Georgia Camp Meeting
TTITLE6=High Rockin' Swing
TTITLE7=Pickin' The Blues
TTITLE8=Mr. Sandman
TTITLE9=Streets Of Laredo
TTITLE10=Tennessee Rag - Beaumont Rag
TTITLE11=Wildwood Flower
EXTD=
EXTT0=
EXTT1=
EXTT2=
EXTT3=
EXTT4=
EXTT5=
EXTT6=
EXTT7=
EXTT8=
EXTT9=
EXTT10=
EXTT11=
PLAYORDER=
